# xmcd
#
# Track frame offsets: 
#        150
#        23294
#        44441
#        62527
#        102224
#        126161
#        153851
#        173134
#        212071
#        234286
#        254528
#
# Disc length: 3763 seconds
#
# Revision: 2
# Processed by: cddbd v1.5.2PL0 Copyright (c) Steve Scherf et al.
# Submitted via: ExactAudioCopy v0.99pb5
#
DISCID=840eb10b
DTITLE=Santana - Supernatural - Remastered, Special Edition, CD 2
DYEAR=2010
DGENRE=Latin Rock
TTITLE0=Bacalao Con Pan
TTITLE1=Angel Love (Come For Me)
TTITLE2=Rain Down On Me (Featuring Dave Matthews and Carter Beauford)
TTITLE3=Corazon Espinado (Spanish Dance Remix) (Featuring Maná)
TTITLE4=One Fine Morning
TTITLE5=Exodus - Get Up Stand Up
TTITLE6=Ya Yo Me Cure
TTITLE7=Maria Maria (Pumpin' Dolls Club Mix) (Featuring The Product G&
TTITLE7=B)
TTITLE8=Smooth (Instrumental)
TTITLE9=The Calling Jam (Featuring Eric Clapton)
TTITLE10=Olympic Festival
EXTD=
EXTT0=
EXTT1=
EXTT2=
EXTT3=
EXTT4=
EXTT5=
EXTT6=
EXTT7=
EXTT8=
EXTT9=
EXTT10=
PLAYORDER=
